<?xml version="1.0" standalone="no"?>
<!DOCTYPE svg PUBLIC "-//W3C//DTD SVG 20010904//EN"
 "http://www.w3.org/TR/2001/REC-SVG-20010904/DTD/svg10.dtd">
<svg version="1.0" xmlns="http://www.w3.org/2000/svg"
 width="1382.000000pt" height="527.000000pt" viewBox="0 0 1382.000000 527.000000"
 preserveAspectRatio="xMidYMid meet">

<g transform="translate(0.000000,527.000000) scale(0.100000,-0.100000)"
fill="#000000" stroke="none">
<path d="M0 2635 l0 -2635 6910 0 6910 0 0 2635 0 2635 -6910 0 -6910 0 0
-2635z m3987 171 c61 -16 106 -42 146 -84 l27 -29 -60 -57 -60 -58 -33 28
c-61 52 -122 65 -199 44 -80 -22 -129 -93 -130 -184 -1 -98 35 -157 114 -190
73 -31 150 -17 215 38 l33 28 60 -58 60 -57 -27 -30 c-73 -76 -193 -112 -324
-97 -144 16 -245 86 -301 206 -27 57 -30 76 -30 154 0 74 4 97 26 147 45 96
124 165 231 199 54 17 188 17 252 0z m783 -22 c79 -38 140 -97 177 -172 25
-50 28 -68 28 -152 0 -85 -3 -101 -29 -155 -36 -73 -99 -135 -174 -172 -53
-26 -65 -28 -182 -28 -117 0 -129 2 -182 28 -75 37 -138 99 -174 172 -26 54
-29 70 -29 155 0 84 3 102 28 152 70 142 193 210 372 205 88 -2 108 -6 165
-33z m4173 17 c114 -39 186 -109 228 -220 17 -45 20 -72 17 -141 -3 -73 -9
-94 -38 -148 -38 -72 -90 -121 -170 -160 -51 -25 -65 -27 -175 -27 -109 0
-125 2 -177 27 -79 37 -142 98 -180 175 -28 57 -31 74 -31 152 0 72 4 96 25
143 45 98 128 171 231 203 66 21 204 19 270 -4z m-3331 -34 c98 -48 151 -106
178 -195 66 -214 -53 -410 -275 -451 -32 -6 -141 -11 -242 -11 l-183 0 0 170
0 170 95 0 95 0 0 -90 0 -90 94 0 c52 0 107 5 123 11 91 34 138 159 98 256
-20 48 -41 71 -87 94 -33 17 -60 19 -228 19 l-190 0 0 81 0 81 223 -4 223 -3
76 -38z m498 -307 l0 -350 -95 0 -95 0 0 350 0 350 95 0 95 0 0 -350z m467
158 c88 -106 201 -245 251 -309 82 -104 92 -121 92 -158 l0 -41 -77 0 -78 0
-252 305 c-247 299 -253 306 -253 350 l0 45 79 0 78 0 160 -192z m343 22 c0
-93 -2 -170 -4 -170 -2 0 -45 50 -95 111 l-91 110 0 60 0 59 95 0 95 0 0 -170z
m718 -174 c84 -189 152 -347 152 -350 0 -3 -44 -6 -98 -6 l-98 0 -87 219 c-48
121 -95 237 -103 258 l-16 38 -102 -255 -101 -255 -99 -3 c-83 -2 -98 0 -93
12 3 8 72 165 153 350 l148 336 96 0 96 0 152 -344z m742 269 l0 -75 -105 0
-105 0 0 -275 0 -275 -100 0 -100 0 0 275 0 275 -105 0 -105 0 0 75 0 75 310
0 310 0 0 -75z m1395 47 c108 -50 163 -140 152 -252 -6 -73 -38 -134 -87 -168
-22 -15 -39 -31 -40 -35 0 -5 29 -50 63 -100 35 -51 67 -98 71 -104 6 -10 -16
-13 -96 -13 l-104 0 -65 93 -65 92 -52 3 -52 3 0 -95 0 -96 -100 0 -100 0 0
169 0 170 191 3 191 3 24 28 c32 37 33 96 2 132 -32 36 -79 44 -255 45 l-153
0 0 76 0 75 213 -3 c196 -3 216 -5 262 -26z m-3416 -442 c90 -114 91 -115 91
-172 l0 -58 -95 0 -95 0 0 177 c0 97 2 174 4 172 2 -2 45 -56 95 -119z"/>
<path d="M4515 2646 c-39 -18 -80 -62 -99 -108 -39 -91 1 -211 83 -255 55 -29
120 -30 176 -3 144 70 137 304 -12 366 -41 18 -109 17 -148 0z"/>
<path d="M8725 2646 c-62 -27 -115 -113 -115 -186 0 -75 54 -160 117 -186 68
-29 168 -9 215 43 66 72 61 233 -8 295 -51 45 -148 61 -209 34z"/>
</g>
</svg>
